<svg width="26" height="28" viewBox="0 0 26 28" fill="none" xmlns="http://www.w3.org/2000/svg">
<path d="M11.8053 13.0036C11.8053 12.4604 12.0779 11.7684 12.5223 11.3389C12.9702 10.906 13.5898 10.6632 14.2134 10.6763C14.824 10.6922 15.4046 10.9437 15.833 11.3777C16.2614 11.8118 16.5104 12.4604 16.5104 13.0036" fill="white"/>
<path d="M16.5151 13.0013C16.5151 12.4604 16.7673 11.7959 17.2078 11.3604C17.6483 10.925 18.2448 10.679 18.8677 10.6758C19.4916 10.6758 20.09 10.9208 20.5312 11.3569C20.9724 11.793 21.2203 12.4604 21.2203 13.0013" fill="white"/>
<path d="M21.2372 13.0014V5.05407C21.2404 4.4313 21.4902 3.83495 21.9323 3.39458C22.3744 2.95421 22.9731 2.70538 23.5982 2.70215C24.2244 2.70215 24.825 2.94994 25.2678 3.39101C25.7106 3.83208 25.9593 4.4303 25.9593 5.05407L25.9593 16.4853C25.96 18.0378 25.6621 19.576 25.0816 21.0167L24.4759 22.5313C23.8955 23.9721 23.7954 25.5102 23.796 27.0627" fill="white"/>
<path d="M8.11228 27.0625C8.11508 26.3166 8.11429 25.5776 7.8278 24.8884C7.5413 24.1993 7.12013 23.5738 6.58877 23.0482L0.729376 17.2115C0.496523 16.981 0.312104 16.7065 0.186882 16.4042C0.0616608 16.1019 -0.00185517 15.7777 4.12466e-05 15.4507C0.00237314 14.7876 0.263992 14.1516 0.729376 13.6775C0.959819 13.4411 1.23556 13.2531 1.54026 13.1247C1.84497 12.9963 2.17243 12.9302 2.50327 12.9302C2.8341 12.9302 3.16156 12.9963 3.46627 13.1247C3.77097 13.2531 4.04671 13.4411 4.27715 13.6775L7.08324 16.485V2.35191C7.08324 1.72815 7.33199 1.12993 7.77478 0.688859C8.21756 0.24779 8.81811 0 9.4443 0C10.0695 0.00323523 10.6682 0.252064 11.1102 0.692434C11.5523 1.1328 11.8021 1.72914 11.8054 2.35191V13.0013" fill="white"/>
<rect x="8.1123" y="13.0015" width="15.6837" height="14.0613" fill="white"/>
</svg>
