<svg width="31" height="20" viewBox="0 0 31 20" fill="none" xmlns="http://www.w3.org/2000/svg">
<mask id="mask0_212_4369" style="mask-type:alpha" maskUnits="userSpaceOnUse" x="0" y="0" width="21" height="21">
<path d="M0 0.000732422H20.0012V20.0019H0V0.000732422Z" fill="white"/>
</mask>
<g mask="url(#mask0_212_4369)">
<path d="M1.90024 29.2563C3.41804 30.7741 4.91206 30.8765 7.90009 31.0813C8.58838 31.1284 9.29449 31.1565 10.0006 31.1565C10.7067 31.1565 11.4128 31.1284 12.1011 31.0813C15.0891 30.8765 16.5832 30.7741 18.101 29.2563C19.6188 27.7384 19.7212 26.2444 19.926 23.2564C19.9732 22.5681 20.0012 21.862 20.0012 21.1559C20.0012 20.4498 19.9732 19.7437 19.926 19.0554C19.7212 16.0674 19.6188 14.5733 18.101 13.0555C16.5832 11.5377 15.0891 11.4353 12.1011 11.2305C11.4128 11.1833 10.7067 11.1553 10.0006 11.1553C9.29449 11.1553 8.58838 11.1833 7.90009 11.2305C4.91206 11.4353 3.41804 11.5377 1.90024 13.0555C0.382436 14.5733 0.280031 16.0674 0.0752211 19.0554C0.0280435 19.7437 -4.68005e-07 20.4498 -4.3714e-07 21.1559C-4.06275e-07 21.862 0.0280436 22.5681 0.0752213 23.2564C0.280031 26.2444 0.382436 27.7385 1.90024 29.2563Z" fill="white"/>
</g>
<path d="M5.57727 4.42334C5.57727 5.25217 5.95723 5.68804 6.71714 6.5598C6.89219 6.7606 7.07732 6.96105 7.27011 7.15384C7.4629 7.34664 7.66335 7.53177 7.86416 7.70682C8.73591 8.46673 9.17179 8.84669 10.0006 8.84669C10.8294 8.84669 11.2653 8.46673 12.1371 7.70682C12.3379 7.53177 12.5383 7.34664 12.7311 7.15384C12.9239 6.96105 13.109 6.7606 13.2841 6.5598C14.044 5.68804 14.424 5.25217 14.424 4.42334C14.424 3.59452 14.044 3.15864 13.2841 2.28689C13.109 2.08608 12.9239 1.88563 12.7311 1.69284C12.5383 1.50005 12.3379 1.31492 12.1371 1.13987C11.2653 0.379956 10.8294 3.25501e-07 10.0006 0C9.17179 -3.17363e-07 8.73591 0.379957 7.86416 1.13987C7.66335 1.31492 7.4629 1.50005 7.27011 1.69284C7.07732 1.88563 6.89219 2.08608 6.71714 2.28689C5.95723 3.15864 5.57727 3.59452 5.57727 4.42334Z" fill="white"/>
<mask id="mask1_212_4369" style="mask-type:alpha" maskUnits="userSpaceOnUse" x="8" y="0" width="23" height="21">
<path d="M8.5719 0H30.4778V20.001H8.5719V0Z" fill="white"/>
</mask>
<g mask="url(#mask1_212_4369)">
<path d="M12.377 29.2563C13.8949 30.7741 15.3889 30.8765 18.3769 31.0813C19.0652 31.1284 19.7713 31.1565 20.4774 31.1565C21.1835 31.1565 21.8896 31.1284 22.5779 31.0813C25.5659 30.8765 27.06 30.7741 28.5778 29.2563C30.0956 27.7384 30.198 26.2444 30.4028 23.2564C30.45 22.5681 30.478 21.862 30.478 21.1559C30.478 20.4498 30.45 19.7437 30.4028 19.0554C30.198 16.0674 30.0956 14.5733 28.5778 13.0555C27.06 11.5377 25.5659 11.4353 22.5779 11.2305C21.8896 11.1833 21.1835 11.1553 20.4774 11.1553C19.7713 11.1553 19.0652 11.1833 18.3769 11.2305C15.3889 11.4353 13.8948 11.5377 12.377 13.0555C10.8592 14.5733 10.7568 16.0674 10.552 19.0554C10.5049 19.7437 10.4768 20.4498 10.4768 21.1559C10.4768 21.862 10.5049 22.5681 10.552 23.2564C10.7568 26.2444 10.8592 27.7385 12.377 29.2563Z" fill="white"/>
<path fill-rule="evenodd" clip-rule="evenodd" d="M17.9699 32.8674C15.2353 32.6821 13.0988 32.5373 11.0973 30.5358C9.09575 28.5343 8.95099 26.3977 8.7657 23.6631C8.75936 23.5695 8.75296 23.4752 8.74645 23.3801C8.69689 22.657 8.66699 21.9092 8.66699 21.1558C8.66699 20.4025 8.69689 19.6547 8.74645 18.9316C8.75296 18.8365 8.75936 18.7422 8.7657 18.6486C8.95099 15.914 9.09575 13.7774 11.0973 11.7759C13.0988 9.77439 15.2353 9.62962 17.97 9.44433C18.0636 9.43799 18.1579 9.4316 18.253 9.42508C18.976 9.37552 19.7239 9.34563 20.4772 9.34563C21.2305 9.34563 21.9784 9.37552 22.7015 9.42508C22.7965 9.4316 22.8908 9.43799 22.9845 9.44433C25.7191 9.62962 27.8557 9.77438 29.8572 11.7759C31.8587 13.7774 32.0034 15.914 32.1887 18.6486C32.1951 18.7422 32.2015 18.8365 32.208 18.9316C32.2575 19.6547 32.2874 20.4025 32.2874 21.1558C32.2874 21.9092 32.2575 22.657 32.208 23.3801C32.2015 23.4751 32.1951 23.5695 32.1887 23.6631C32.0034 26.3977 31.8587 28.5343 29.8572 30.5358C27.8557 32.5373 25.7191 32.6821 22.9845 32.8674C22.8908 32.8737 22.7965 32.8801 22.7015 32.8866C21.9784 32.9362 21.2306 32.9661 20.4772 32.9661C19.7239 32.9661 18.976 32.9362 18.253 32.8866C18.1579 32.8801 18.0636 32.8737 17.9699 32.8674ZM18.3767 31.0812C15.3887 30.8764 13.8947 30.774 12.3768 29.2562C10.859 27.7384 10.7566 26.2444 10.5518 23.2564C10.5047 22.5681 10.4766 21.862 10.4766 21.1558C10.4766 20.4497 10.5047 19.7436 10.5518 19.0553C10.7566 16.0673 10.859 14.5733 12.3768 13.0555C13.8947 11.5377 15.3887 11.4353 18.3767 11.2305C19.065 11.1833 19.7711 11.1552 20.4772 11.1552C21.1833 11.1552 21.8894 11.1833 22.5777 11.2305C25.5657 11.4353 27.0598 11.5377 28.5776 13.0555C30.0954 14.5733 30.1978 16.0673 30.4026 19.0553C30.4498 19.7436 30.4778 20.4497 30.4778 21.1558C30.4778 21.862 30.4498 22.5681 30.4026 23.2564C30.1978 26.2444 30.0954 27.7384 28.5776 29.2562C27.0598 30.774 25.5657 30.8764 22.5777 31.0812C21.8894 31.1284 21.1833 31.1564 20.4772 31.1564C19.7711 31.1564 19.065 31.1284 18.3767 31.0812Z" fill="#5663F1"/>
</g>
<path d="M16.054 4.42334C16.054 5.25217 16.4339 5.68804 17.1938 6.5598C17.3689 6.7606 17.554 6.96105 17.7468 7.15384C17.9396 7.34664 18.14 7.53177 18.3408 7.70682C19.2126 8.46673 19.6485 8.84669 20.4773 8.84669C21.3061 8.84669 21.742 8.46673 22.6138 7.70682C22.8146 7.53177 23.015 7.34664 23.2078 7.15384C23.4006 6.96105 23.5857 6.7606 23.7608 6.5598C24.5207 5.68804 24.9006 5.25217 24.9006 4.42334C24.9006 3.59452 24.5207 3.15864 23.7608 2.28689C23.5857 2.08608 23.4006 1.88563 23.2078 1.69284C23.015 1.50005 22.8146 1.31492 22.6138 1.13987C21.742 0.379956 21.3061 3.25501e-07 20.4773 0C19.6485 -3.17363e-07 19.2126 0.379957 18.3408 1.13987C18.14 1.31492 17.9396 1.50005 17.7468 1.69284C17.554 1.88563 17.3689 2.08608 17.1938 2.28689C16.4339 3.15864 16.054 3.59452 16.054 4.42334Z" fill="white"/>
</svg>
