<svg width="27" height="27" viewBox="0 0 27 27" fill="none" xmlns="http://www.w3.org/2000/svg">
<path fill-rule="evenodd" clip-rule="evenodd" d="M24.9231 2.14286H2.07692V4.28571C2.07692 6.06091 3.47173 7.5 5.19231 7.5H21.8077C23.5283 7.5 24.9231 6.06092 24.9231 4.28571V2.14286ZM0 0V4.28571C0 7.24438 2.32468 9.64286 5.19231 9.64286H21.8077C24.6753 9.64286 27 7.24438 27 4.28571V0H0Z" fill="white"/>
<path fill-rule="evenodd" clip-rule="evenodd" d="M4.82141 0V5.08929C4.82141 7.75816 4.97162 9.85864 5.12828 11.9084C5.34102 14.6919 6.38202 17.6391 9.54577 18.1021C10.4608 18.236 12.1691 18.3214 13.5 18.3214C14.8308 18.3214 16.5391 18.236 17.4542 18.1021C20.618 17.6391 21.659 14.6919 21.8717 11.9084C22.0284 9.8586 22.1786 7.75814 22.1786 5.08929V0H4.82141Z" fill="white"/>
<path fill-rule="evenodd" clip-rule="evenodd" d="M12.5358 25.0713L12.5358 18.3213L14.4643 18.3213L14.4643 25.0713L12.5358 25.0713Z" fill="white"/>
<path fill-rule="evenodd" clip-rule="evenodd" d="M5.78566 25.0713H21.2142V26.9999H5.78566V25.0713Z" fill="white"/>
</svg>
