<svg width="27" height="27" viewBox="0 0 27 27" fill="none" xmlns="http://www.w3.org/2000/svg">
<path fill-rule="evenodd" clip-rule="evenodd" d="M7.69895 7.69949C5.42671 9.97172 2.61357 10.6024 0.460919 9.9943C1.05364 7.78181 2.21802 5.69058 3.95406 3.95455C5.69008 2.21852 7.78129 1.05415 9.99375 0.461423C10.6019 2.61408 9.9712 5.42723 7.69895 7.69949ZM9.09412 9.09466C11.6961 6.49264 12.6938 2.9887 11.9502 0.0892095C15.6119 -0.331527 19.413 0.744158 22.3626 3.31626L3.31577 22.3631C0.743683 19.4135 -0.332003 15.6125 0.0887142 11.9507C2.9882 12.6943 6.49211 11.6967 9.09412 9.09466ZM4.71626 23.753C7.65455 26.2758 11.4205 27.3287 15.0496 26.9118C14.306 24.0123 15.3037 20.5084 17.9057 17.9063C20.5077 15.3043 24.0118 14.3066 26.9113 15.0503C27.3283 11.4211 26.2753 7.65509 23.7525 4.71675L4.71626 23.753ZM23.0886 3.99742C23.0744 3.98311 23.0602 3.96881 23.0459 3.95455C23.0317 3.94028 23.0174 3.92605 23.0031 3.91186L23.0886 3.99742ZM19.3009 19.3015C21.5732 17.0292 24.3864 16.3986 26.5391 17.0068C25.9463 19.2192 24.782 21.3104 23.0459 23.0464C21.3099 24.7825 19.2186 25.9469 17.0061 26.5396C16.3979 24.3869 17.0286 21.5738 19.3009 19.3015Z" fill="white"/>
</svg>
