<svg width="26" height="29" viewBox="0 0 26 29" fill="none" xmlns="http://www.w3.org/2000/svg">
<path fill-rule="evenodd" clip-rule="evenodd" d="M4.10823 23.4004C6.36635 25.973 9.50866 27.7344 13.0001 28.3848C16.4915 27.7344 19.6338 25.973 21.892 23.4004C24.1501 20.8279 25.3844 17.6033 25.3847 14.2757V5.12967L13.0001 0.384766L0.615479 5.12967V14.2757C0.615799 17.6033 1.85011 20.8279 4.10823 23.4004ZM17.3079 13.3078H16.1234V12.2309C16.1234 10.5061 14.7252 9.10782 13.0003 9.10782C11.2755 9.10782 9.87727 10.5061 9.87727 12.2309V13.3078H8.69255V19.7694H17.3079V13.3078ZM14.0773 12.2309C14.0773 11.8046 13.8296 11.4362 13.4703 11.2617C13.3283 11.1927 13.1688 11.154 13.0003 11.154C12.8318 11.154 12.6724 11.1927 12.5304 11.2617C12.1711 11.4362 11.9234 11.8046 11.9234 12.2309V13.3078H14.0773V12.2309Z" fill="white"/>
</svg>
