<svg width="32" height="25" viewBox="0 0 32 25" fill="none" xmlns="http://www.w3.org/2000/svg">
<path fill-rule="evenodd" clip-rule="evenodd" d="M31.1475 5.5537C30.6453 4.90047 29.7118 3.88818 28.8584 3.05758C28.005 2.22698 26.9649 1.31851 26.2937 0.829671C23.9735 -0.857481 21.4488 0.301896 19.5597 1.87657C18.6441 2.63795 17.2973 3.82329 16.0038 5.01727C14.7104 3.82761 13.3591 2.64228 12.4435 1.87657C10.55 0.301896 8.02527 -0.857481 5.70504 0.829671C5.03831 1.31851 3.99376 2.22698 3.14035 3.05758C2.29138 3.88818 1.35351 4.90047 0.855679 5.5537C-0.882269 7.81189 0.308959 10.2691 1.9269 12.1076C3.11812 13.4617 16 24.4706 16 24.4706C16 24.4706 28.8806 13.4617 30.0719 12.1076C31.6898 10.2691 32.881 7.81189 31.1475 5.5537Z" fill="white"/>
<path fill-rule="evenodd" clip-rule="evenodd" d="M13.4117 7.5293L19.0886 12.264L20.9454 10.8122H23.5295V13.0218H21.6518L19.0467 15.0587L13.569 10.4901L11.1406 13.0218H8.4707V10.8122H10.2627L13.4117 7.5293Z" fill="#FF0032"/>
</svg>
