<svg width="27" height="27" viewBox="0 0 27 27" fill="none" xmlns="http://www.w3.org/2000/svg">
<path d="M8.79381 8.80309V4.40309C8.79381 3.23532 9.25771 2.11538 10.0834 1.28964C10.9092 0.463896 12.0291 0 13.1969 0H21.9969C23.1647 0 24.2846 0.463896 25.1104 1.28964C25.9361 2.11538 26.4 3.23532 26.4 4.40309V13.2062C26.4 14.374 25.9361 15.4939 25.1104 16.3196C24.2846 17.1454 23.1647 17.6093 21.9969 17.6093H17.5969V21.9969C17.5969 23.1647 17.133 24.2846 16.3073 25.1104C15.4815 25.9361 14.3616 26.4 13.1938 26.4C12.0266 26.3992 10.9074 25.9349 10.0824 25.1093C9.25728 24.2836 8.79381 23.1641 8.79381 21.9969V17.6093H4.39072C3.22509 17.606 2.10832 17.1407 1.28526 16.3153C0.462192 15.4899 -4.6051e-06 14.3718 0 13.2062C-4.6051e-06 12.0406 0.462192 10.9225 1.28526 10.0971C2.10832 9.27171 3.22509 8.80637 4.39072 8.80309H8.79381Z" fill="url(#paint0_linear_361_1588)"/>
<defs>
<linearGradient id="paint0_linear_361_1588" x1="-2.01904" y1="17.991" x2="16.8355" y2="-10.0437" gradientUnits="userSpaceOnUse">
<stop offset="0.0121362" stop-color="#9BD5FF"/>
<stop offset="0.416826" stop-color="#9B93FF"/>
<stop offset="0.497655" stop-color="#9A8DFF"/>
<stop offset="0.83292" stop-color="#7C86FE"/>
</linearGradient>
</defs>
</svg>
