<svg width="25" height="25" viewBox="0 0 25 25" fill="none" xmlns="http://www.w3.org/2000/svg">
<path fill-rule="evenodd" clip-rule="evenodd" d="M13.4271 0V3.57143H11.5727V0H13.4271ZM23.1243 3.6527L20.3884 5.94837L19.1964 4.52782L21.9323 2.23215L23.1243 3.6527ZM20.3884 19.1152L23.1243 21.4108L21.9323 22.8314L19.1964 20.5357L20.3884 19.1152ZM1.93302 3.6527L4.66889 5.94837L5.86087 4.52782L3.125 2.23215L1.93302 3.6527ZM4.66889 19.1152L1.93302 21.4108L3.125 22.8314L5.86087 20.5357L4.66889 19.1152ZM13.4617 21.4286V25H11.6073V21.4286H13.4617ZM25 11.5385H21.4286V13.3929H25V11.5385ZM0 11.5385H3.57143V13.3929H0V11.5385ZM6.00191 11.1541C6.13676 9.18669 6.20419 8.20297 7.20358 7.20358C8.20297 6.2042 9.18669 6.13677 11.1541 6.00191C11.6073 5.97085 12.0723 5.95238 12.5372 5.95238C13.0021 5.95238 13.4671 5.97085 13.9203 6.00191C15.8877 6.13677 16.8714 6.2042 17.8708 7.20358C18.8702 8.20297 18.9376 9.18669 19.0725 11.1541C19.1036 11.6073 19.122 12.0723 19.122 12.5372C19.122 13.0021 19.1036 13.4671 19.0725 13.9203C18.9376 15.8877 18.8702 16.8714 17.8708 17.8708C16.8714 18.8702 15.8877 18.9376 13.9203 19.0725C13.4671 19.1036 13.0021 19.122 12.5372 19.122C12.0723 19.122 11.6073 19.1036 11.1541 19.0725C9.18669 18.9376 8.20297 18.8702 7.20358 17.8708C6.20419 16.8714 6.13676 15.8877 6.00191 13.9203C5.97084 13.4671 5.95238 13.0021 5.95238 12.5372C5.95238 12.0723 5.97084 11.6073 6.00191 11.1541Z" fill="white"/>
</svg>
