<svg width="28" height="28" viewBox="0 0 28 28" fill="none" xmlns="http://www.w3.org/2000/svg">
<path d="M28 14C28 21.732 21.732 28 14 28C6.26801 28 0 21.732 0 14C0 6.26801 6.26801 0 14 0C21.732 0 28 6.26801 28 14Z" fill="white"/>
<path d="M22.6154 13.9999C22.6154 18.7581 18.7582 22.6153 14 22.6153C9.24188 22.6153 5.38464 18.7581 5.38464 13.9999C5.38464 9.24176 9.24188 5.38452 14 5.38452C18.7582 5.38452 22.6154 9.24176 22.6154 13.9999Z" fill="white"/>
<path fill-rule="evenodd" clip-rule="evenodd" d="M14 6.40773C9.80686 6.40773 6.40767 9.80692 6.40767 14C6.40767 18.1931 9.80686 21.5923 14 21.5923C18.1931 21.5923 21.5923 18.1931 21.5923 14C21.5923 9.80692 18.1931 6.40773 14 6.40773ZM4.36151 14C4.36151 8.67686 8.6768 4.36157 14 4.36157C19.3231 4.36157 23.6384 8.67686 23.6384 14C23.6384 19.3232 19.3231 23.6385 14 23.6385C8.6768 23.6385 4.36151 19.3232 4.36151 14Z" fill="#5663F1"/>
<path fill-rule="evenodd" clip-rule="evenodd" d="M14.8539 11.623L23.4693 3.00757L24.9923 4.53057L16.3769 13.146L14.8539 11.623Z" fill="white"/>
<path fill-rule="evenodd" clip-rule="evenodd" d="M23.4693 0.114014L27.886 4.53071L16.3769 16.0398L11.9602 11.6231L23.4693 0.114014ZM14.8539 11.6231L23.4693 3.00771L24.9923 4.53071L16.3769 13.1461L14.8539 11.6231Z" fill="#5663F1"/>
<path d="M17.2308 14.0001C17.2308 15.7844 15.7843 17.2308 14 17.2308C12.2157 17.2308 10.7692 15.7844 10.7692 14.0001C10.7692 12.2158 12.2157 10.7693 14 10.7693C15.7843 10.7693 17.2308 12.2158 17.2308 14.0001Z" fill="white"/>
<path fill-rule="evenodd" clip-rule="evenodd" d="M14 11.7922C12.7807 11.7922 11.7923 12.7807 11.7923 13.9999C11.7923 15.2192 12.7807 16.2076 14 16.2076C15.2193 16.2076 16.2077 15.2192 16.2077 13.9999C16.2077 12.7807 15.2193 11.7922 14 11.7922ZM9.74615 13.9999C9.74615 11.6506 11.6507 9.74609 14 9.74609C16.3493 9.74609 18.2538 11.6506 18.2538 13.9999C18.2538 16.3493 16.3493 18.2538 14 18.2538C11.6507 18.2538 9.74615 16.3493 9.74615 13.9999Z" fill="#5663F1"/>
<path fill-rule="evenodd" clip-rule="evenodd" d="M14.3154 12.1614L23.4693 3.00757L24.9923 4.53057L15.8384 13.6844L14.3154 12.1614Z" fill="white"/>
<path fill-rule="evenodd" clip-rule="evenodd" d="M23.1 0H25.2539V2.74615H28V4.9H23.1V0Z" fill="white"/>
</svg>
