<svg width="32" height="21" viewBox="0 0 32 21" fill="none" xmlns="http://www.w3.org/2000/svg">
<path d="M9.95343 2.0069C10.8285 1.92853 12.6818 2.53705 13.4907 2.86891L15.8568 3.99988L24 17.1355C24 17.1355 19.0367 20 15.8569 20C12.677 20 8.16703 17.4136 8.16703 17.4136L3.3 14.4815H1V4.94938H4.65909L7.5051 2.84207C8.23708 2.37223 9.07835 2.08526 9.95343 2.0069Z" fill="white"/>
<path fill-rule="evenodd" clip-rule="evenodd" d="M12.6907 2.86418L14.9003 3.98691L22.6645 17.3004C22.5556 17.3629 22.4274 17.4354 22.2827 17.5157C21.7783 17.7953 21.0737 18.1678 20.2729 18.5399C18.6483 19.2948 16.7102 20.0077 15.2451 20.0077C13.774 20.0077 11.9437 19.3633 10.4375 18.6844C9.69382 18.3492 9.04626 18.0136 8.58475 17.7619C8.3542 17.6361 8.17059 17.5315 8.0452 17.4588C7.98252 17.4224 7.93443 17.394 7.90233 17.3749L7.86638 17.3533L7.85959 17.3492L2.91112 14.1802H0.972616V5.10666H4.28705L7.23219 2.78853C7.88911 2.34355 8.64255 2.07182 9.42585 1.99726C9.7598 1.96547 10.3573 2.07832 11.0293 2.2732C11.6715 2.45942 12.3063 2.69738 12.6907 2.86418ZM7.60606 17.7726C7.35661 18.1986 7.35669 18.1986 7.35679 18.1987L7.35794 18.1994L7.3609 18.2012L7.37164 18.2076L7.41196 18.2318C7.44703 18.2527 7.49828 18.2829 7.56427 18.3213C7.69624 18.3978 7.88732 18.5066 8.12614 18.6369C8.60339 18.8973 9.27331 19.2445 10.0445 19.5921C11.5681 20.2788 13.5574 21 15.2451 21C16.939 21 19.0456 20.2005 20.676 19.443C21.5027 19.0588 22.2282 18.6752 22.747 18.3876C23.0066 18.2437 23.215 18.1236 23.359 18.0391C23.431 17.9968 23.4869 17.9635 23.5252 17.9405L23.5691 17.914L23.5807 17.907L23.5847 17.9045C23.5848 17.9044 23.5852 17.9042 23.3346 17.479L23.5852 17.9042L24 17.6497L15.5899 3.22877L13.0988 1.963L13.0858 1.95733C12.6652 1.77393 11.9846 1.51863 11.2953 1.31872C10.6285 1.12537 9.87084 0.958305 9.33549 1.00927C8.38548 1.0997 7.4724 1.43086 6.67814 1.97279L6.66446 1.98212L3.95547 4.11437H0V15.1725H2.63115L7.35203 18.1958L7.35679 18.1987L7.60606 17.7726Z" fill="#626AAC"/>
<path fill-rule="evenodd" clip-rule="evenodd" d="M28.3858 14.7176H31V4.16569H27.0788L24.0621 1.92873C23.2892 1.41054 22.401 1.09403 21.477 1.00761C20.5531 0.921178 18.5963 1.59233 17.7422 1.95833V1.96098L11.046 4.42038C9.28537 5.06705 8.64932 6.98901 9.18334 8.46959C9.71737 9.95018 11.4215 10.9894 13.1821 10.3427L17.8015 8.64608L23.3632 18L28.3858 14.7176Z" fill="white"/>
<path fill-rule="evenodd" clip-rule="evenodd" d="M18.6637 2.50347V2.52301L11.3122 5.17175C10.0866 5.61332 9.61475 6.93839 9.99776 7.98008C10.3779 9.01395 11.5878 9.71901 12.8208 9.27478L18.1929 7.33922L23.6864 16.4026L28.158 13.5359H30.1284V4.97629H26.8129L23.5497 2.60258C22.9054 2.18293 22.1666 1.92649 21.3985 1.856C21.1263 1.83103 20.555 1.92532 19.8343 2.12675C19.4209 2.24232 19.0104 2.37781 18.6637 2.50347ZM19.3257 0.343743C20.0364 0.145073 20.914 -0.0491339 21.5712 0.0111749C22.6549 0.110612 23.6966 0.474761 24.6031 1.07096L24.6215 1.08308L27.4266 3.12355H32V15.3887H28.7111L23.078 19L17.3823 9.60293L13.4609 11.0158C11.1517 11.8478 8.93324 10.5019 8.23901 8.61376C7.54765 6.73343 8.35544 4.2654 10.672 3.43074L17.3414 1.0278L17.3621 1.01908C17.8276 0.823379 18.5717 0.554502 19.3257 0.343743Z" fill="#626AAC"/>
</svg>
