<svg width="32" height="8" viewBox="0 0 32 8" fill="none" xmlns="http://www.w3.org/2000/svg">
<path d="M10.4792 0.299385V7.69781C10.4792 7.86251 10.3515 7.99651 10.1944 7.99651H8.35491C8.19785 7.99651 8.07007 7.86251 8.07007 7.69781V0.299385C8.07007 0.134688 8.19785 0.000684533 8.35491 0.000684533H10.1944C10.3515 0.000684533 10.4792 0.134003 10.4792 0.299385ZM7.60288 7.66082L5.45992 3.81611L7.49108 0.349653C7.58823 0.201689 7.48776 0 7.3167 0L5.0839 0.00417508C5.01335 0.00417508 4.94679 0.0411659 4.90753 0.10259L3.32959 2.91443H2.40849V0.299385C2.40849 0.134688 2.28074 0.000684533 2.12368 0.000684533H0.284842C0.127779 0.000684533 0 0.134688 0 0.299385V7.69781C0 7.86251 0.127779 7.99651 0.284842 7.99651H2.12434C2.28139 7.99651 2.40918 7.86251 2.40918 7.69781V5.09324H3.52992L5.09852 7.89111C5.13713 7.95812 5.20634 8 5.28087 8H7.42187C7.58823 8 7.69007 7.80947 7.60288 7.66082ZM31.7151 7.99651C31.8724 7.99651 32 7.86251 32 7.69781V0.299385C32 0.134688 31.8724 0.000684533 31.7151 0.000684533H29.9423C29.7853 0.000684533 29.6575 0.134688 29.6575 0.299385L29.6688 4.08408L26.4504 0.00417508H24.4059C24.2488 0.00417508 24.121 0.138178 24.121 0.302876V7.70198C24.121 7.86668 24.2481 8 24.4052 8H26.1742C26.3312 8 26.4583 7.86668 26.4583 7.70198V3.9124L29.6442 7.99651H31.7151ZM23.3836 0.330114V7.6664C23.3836 7.84855 23.2426 7.99651 23.0689 7.99651H11.5308C11.3571 7.99651 11.216 7.84855 11.216 7.6664V0.330114C11.216 0.147964 11.3571 0 11.5308 0H23.0695C23.2426 0.000684387 23.3836 0.147964 23.3836 0.330114ZM20.9891 2.12649C20.9891 2.06017 20.9312 2.01063 20.8686 2.0239C19.6221 2.28493 15.2084 2.32469 13.7283 2.02181C13.6671 2.00926 13.6105 2.05881 13.6105 2.12509V5.75484C13.6105 5.81907 13.6644 5.8679 13.7256 5.85883C14.9529 5.66833 19.6181 5.69971 20.8773 5.86304C20.9372 5.8707 20.9891 5.82184 20.9891 5.75905V2.12649Z" fill="url(#paint0_linear_212_4585)"/>
<defs>
<linearGradient id="paint0_linear_212_4585" x1="14.017" y1="11.7731" x2="19.3438" y2="-7.2316" gradientUnits="userSpaceOnUse">
<stop offset="0.0335" stop-color="#3973B9"/>
<stop offset="0.0824" stop-color="#355DA8"/>
<stop offset="0.1559" stop-color="#334093"/>
<stop offset="0.2125" stop-color="#303189"/>
<stop offset="0.245" stop-color="#2E2B86"/>
<stop offset="0.4706" stop-color="#C40D71"/>
<stop offset="0.4987" stop-color="#C81163"/>
<stop offset="0.5326" stop-color="#CB1353"/>
<stop offset="0.5699" stop-color="#CE1445"/>
<stop offset="0.6103" stop-color="#D01437"/>
<stop offset="0.6547" stop-color="#D2132C"/>
<stop offset="0.7048" stop-color="#D31323"/>
<stop offset="0.7639" stop-color="#D4131D"/>
<stop offset="0.8407" stop-color="#D41319"/>
<stop offset="1" stop-color="#D51317"/>
</linearGradient>
</defs>
</svg>
