<svg width="26" height="23" viewBox="0 0 26 23" fill="none" xmlns="http://www.w3.org/2000/svg">
<path fill-rule="evenodd" clip-rule="evenodd" d="M26 10.5C26 9.17097 25.916 5.63168 25.7845 4.71788C25.3296 1.55847 22.4342 0.5189 19.6995 0.306452C17.6857 0.150002 15.6221 0 13 0C10.3779 0 8.31431 0.150002 6.30048 0.306451C3.56583 0.518899 0.670365 1.55846 0.215521 4.71788C0.0839667 5.63168 0 9.17097 0 10.5C0 11.3488 0.0342441 13.0989 0.0932573 14.491L0 14.5L0.0949646 14.531C0.128056 15.3015 0.168783 15.9575 0.215516 16.2821C0.670358 19.4416 3.56585 20.4811 6.30052 20.6936C8.31435 20.85 10.378 21 13 21C15.3578 21 17.2641 20.8787 19.0886 20.7405L26 23V12L25.9816 12.0018C25.9936 11.4007 26 10.8664 26 10.5Z" fill="white"/>
<path fill-rule="evenodd" clip-rule="evenodd" d="M0.144691 15.4907C0.126639 15.2081 0.110012 14.8814 0.0949646 14.531L0 14.5L0.0932573 14.491C0.0898338 14.4103 0.0864937 14.3283 0.0832388 14.2454C0.0303862 12.8989 0 11.2995 0 10.5C0 9.17097 0.0839667 5.63168 0.215521 4.71788C0.670365 1.55846 3.56583 0.518899 6.30048 0.306451C8.31431 0.150002 10.3779 0 13 0C15.6221 0 17.6857 0.150002 19.6995 0.306452C22.4342 0.5189 25.3296 1.55847 25.7845 4.71788C25.916 5.63168 26 9.17097 26 10.5C26 10.642 25.999 10.8092 25.9972 10.9957C25.9946 11.2472 25.9905 11.5338 25.9847 11.8411C25.9837 11.8935 25.9827 11.9465 25.9817 12C25.9816 12.0006 25.9816 12.0012 25.9816 12.0018L26 12V23L19.0886 20.7405C17.2641 20.8787 15.3578 21 13 21C10.378 21 8.31435 20.85 6.30052 20.6936C3.56585 20.4811 0.670358 19.4416 0.215516 16.2821C0.190034 16.1051 0.166337 15.8296 0.144691 15.4907ZM25 21.621V13.1008L24.9594 13.1047L24.9818 11.9818C24.9938 11.3842 25 10.8572 25 10.5C25 9.84935 24.9793 8.64351 24.9421 7.48534C24.904 6.30043 24.8508 5.25016 24.7947 4.86037C24.6145 3.60848 23.9739 2.80569 23.078 2.2619C22.1429 1.69429 20.9105 1.40354 19.6221 1.30345C17.6133 1.14739 15.5815 1 13 1C10.4185 1 8.38668 1.14739 6.37793 1.30345C5.08954 1.40354 3.85709 1.69429 2.92195 2.2619C2.02606 2.80569 1.38554 3.60848 1.20532 4.86037C1.1492 5.25016 1.09598 6.30043 1.05791 7.48534C1.0207 8.64351 1 9.84935 1 10.5C1 11.3333 1.03389 13.0693 1.09236 14.4487L1.09404 14.4881C1.12758 15.2691 1.167 15.8735 1.20531 16.1396C1.38554 17.3915 2.02606 18.1943 2.92196 18.7381C3.85711 19.3057 5.08957 19.5965 6.37798 19.6966C8.38672 19.8526 10.4185 20 13 20C15.3212 20 17.199 19.8808 19.0131 19.7434L19.2109 19.7284L25 21.621Z" fill="white"/>
<path fill-rule="evenodd" clip-rule="evenodd" d="M19 12H7V10H19V12Z" fill="#2F2F37"/>
</svg>
